<svg id="Group_57530" data-name="Group 57530" xmlns="http://www.w3.org/2000/svg" width="24.176" height="24.669" viewBox="0 0 24.176 24.669">
  <path id="Path_56798" data-name="Path 56798" d="M2033.425,1305.873a10.577,10.577,0,0,0-.26-2.522h-11.581v4.578h6.8a6.028,6.028,0,0,1-2.522,4l-.023.153,3.662,2.837.254.025a12.06,12.06,0,0,0,3.673-9.073" transform="translate(-2009.249 -1293.264)" fill="#4285f4"/>
  <path id="Path_56799" data-name="Path 56799" d="M1068.537,1723.333a11.756,11.756,0,0,0,8.168-2.988l-3.892-3.015a7.3,7.3,0,0,1-4.276,1.234,7.426,7.426,0,0,1-7.017-5.126l-.145.012-3.807,2.947-.05.138a12.326,12.326,0,0,0,11.019,6.8" transform="translate(-1056.202 -1698.664)" fill="#34a853"/>
  <path id="Path_56800" data-name="Path 56800" d="M947.726,1018.353a7.594,7.594,0,0,1-.411-2.44,7.98,7.98,0,0,1,.4-2.44l-.007-.163-3.855-2.994-.126.06a12.308,12.308,0,0,0,0,11.074l4-3.1" transform="translate(-942.408 -1003.578)" fill="#fbbc05"/>
  <path id="Path_56801" data-name="Path 56801" d="M1068.537,425.594a6.836,6.836,0,0,1,4.769,1.837l3.481-3.4a11.851,11.851,0,0,0-8.25-3.207,12.326,12.326,0,0,0-11.019,6.8l3.988,3.1a7.456,7.456,0,0,1,7.031-5.126" transform="translate(-1056.202 -420.825)" fill="#eb4335"/>
</svg>
